<svg width="3" height="12" viewBox="0 0 3 12" version="1.1" xmlns="http://www.w3.org/2000/svg" xmlns:xlink="http://www.w3.org/1999/xlink">
  <title>Vector</title>
  <desc>Created using Figma</desc>
  <g id="Canvas" transform="translate(-912 17)">
    <g id="Vector">
      <use xlink:href="#path0_fill" transform="translate(912 -17)"/>
    </g>
  </g>
  <defs>
    <path id="path0_fill" d="M 1.5 9C 1.89782 9 2.27936 9.15804 2.56066 9.43934C 2.84196 9.72064 3 10.1022 3 10.5C 3 10.8978 2.84196 11.2794 2.56066 11.5607C 2.27936 11.842 1.89782 12 1.5 12C 1.10218 12 0.720645 11.842 0.43934 11.5607C 0.158036 11.2794 0 10.8978 0 10.5C 0 10.1022 0.158036 9.72064 0.43934 9.43934C 0.720645 9.15804 1.10218 9 1.5 9ZM 1.5 4.5C 1.89782 4.5 2.27936 4.65804 2.56066 4.93934C 2.84196 5.22064 3 5.60218 3 6C 3 6.39782 2.84196 6.77936 2.56066 7.06066C 2.27936 7.34196 1.89782 7.5 1.5 7.5C 1.10218 7.5 0.720645 7.34196 0.43934 7.06066C 0.158036 6.77936 0 6.39782 0 6C 0 5.60218 0.158036 5.22064 0.43934 4.93934C 0.720645 4.65804 1.10218 4.5 1.5 4.5ZM 1.5 0C 1.89782 6.66134e-16 2.27936 0.158035 2.56066 0.43934C 2.84196 0.720644 3 1.10218 3 1.5C 3 1.89782 2.84196 2.27936 2.56066 2.56066C 2.27936 2.84196 1.89782 3 1.5 3C 1.10218 3 0.720645 2.84196 0.43934 2.56066C 0.158036 2.27936 0 1.89782 0 1.5C 0 1.10218 0.158036 0.720644 0.43934 0.43934C 0.720645 0.158035 1.10218 6.66134e-16 1.5 0Z"/>
  </defs>
</svg>
