<svg width="15" height="15" viewBox="0 0 15 15" version="1.1" xmlns="http://www.w3.org/2000/svg" xmlns:xlink="http://www.w3.org/1999/xlink">
  <title>Vector</title>
  <desc>Created using Figma</desc>
  <g id="Canvas" transform="translate(-201 -71)">
    <g id="Vector">
      <use xlink:href="#path0_fill" transform="translate(201 71)"/>
      <mask id="mask0_outline_ins">
        <use xlink:href="#path0_fill" fill="white" transform="translate(201 71)"/>
      </mask>
      <g mask="url(#mask0_outline_ins)">
        <use xlink:href="#path1_stroke_2x" transform="translate(201 71)"/>
      </g>
    </g>
  </g>
  <defs>
    <path id="path0_fill" d="M 13.5 0C 13.8978 3.33067e-16 14.2794 0.158035 14.5607 0.43934C 14.842 0.720644 15 1.10218 15 1.5L 15 10.5C 15 10.8978 14.842 11.2794 14.5607 11.5607C 14.2794 11.842 13.8978 12 13.5 12L 3 12L 0 15L 0 1.5C 0 0.6675 0.675 0 1.5 0L 13.5 0ZM 1.5 1.5L 1.5 11.3775L 2.3775 10.5L 13.5 10.5L 13.5 1.5L 1.5 1.5ZM 3 3.75L 12 3.75L 12 5.25L 3 5.25L 3 3.75ZM 3 6.75L 9.75 6.75L 9.75 8.25L 3 8.25L 3 6.75Z"/>
    <path id="path1_stroke_2x" d="M 13.5 0L 13.5 -0.5L 13.5 0ZM 3 12L 3 11.5L 2.79289 11.5L 2.64645 11.6464L 3 12ZM 0 15L -0.5 15L -0.5 16.2071L 0.353553 15.3536L 0 15ZM 1.5 1.5L 1.5 1L 1 1L 1 1.5L 1.5 1.5ZM 1.5 11.3775L 1 11.3775L 1 12.5846L 1.85355 11.7311L 1.5 11.3775ZM 2.3775 10.5L 2.3775 10L 2.17039 10L 2.02395 10.1464L 2.3775 10.5ZM 13.5 10.5L 13.5 11L 14 11L 14 10.5L 13.5 10.5ZM 13.5 1.5L 14 1.5L 14 1L 13.5 1L 13.5 1.5ZM 3 3.75L 3 3.25L 2.5 3.25L 2.5 3.75L 3 3.75ZM 12 3.75L 12.5 3.75L 12.5 3.25L 12 3.25L 12 3.75ZM 12 5.25L 12 5.75L 12.5 5.75L 12.5 5.25L 12 5.25ZM 3 5.25L 2.5 5.25L 2.5 5.75L 3 5.75L 3 5.25ZM 3 6.75L 3 6.25L 2.5 6.25L 2.5 6.75L 3 6.75ZM 9.75 6.75L 10.25 6.75L 10.25 6.25L 9.75 6.25L 9.75 6.75ZM 9.75 8.25L 9.75 8.75L 10.25 8.75L 10.25 8.25L 9.75 8.25ZM 3 8.25L 2.5 8.25L 2.5 8.75L 3 8.75L 3 8.25ZM 13.5 0.5C 13.7652 0.5 14.0196 0.605357 14.2071 0.792893L 14.9142 0.0857864C 14.5391 -0.289286 14.0304 -0.5 13.5 -0.5L 13.5 0.5ZM 14.2071 0.792893C 14.3946 0.98043 14.5 1.23478 14.5 1.5L 15.5 1.5C 15.5 0.969567 15.2893 0.460859 14.9142 0.0857864L 14.2071 0.792893ZM 14.5 1.5L 14.5 10.5L 15.5 10.5L 15.5 1.5L 14.5 1.5ZM 14.5 10.5C 14.5 10.7652 14.3946 11.0196 14.2071 11.2071L 14.9142 11.9142C 15.2893 11.5391 15.5 11.0304 15.5 10.5L 14.5 10.5ZM 14.2071 11.2071C 14.0196 11.3946 13.7652 11.5 13.5 11.5L 13.5 12.5C 14.0304 12.5 14.5391 12.2893 14.9142 11.9142L 14.2071 11.2071ZM 13.5 11.5L 3 11.5L 3 12.5L 13.5 12.5L 13.5 11.5ZM 2.64645 11.6464L -0.353553 14.6464L 0.353553 15.3536L 3.35355 12.3536L 2.64645 11.6464ZM 0.5 15L 0.5 1.5L -0.5 1.5L -0.5 15L 0.5 15ZM 0.5 1.5C 0.5 0.945269 0.949513 0.5 1.5 0.5L 1.5 -0.5C 0.400487 -0.5 -0.5 0.389731 -0.5 1.5L 0.5 1.5ZM 1.5 0.5L 13.5 0.5L 13.5 -0.5L 1.5 -0.5L 1.5 0.5ZM 1 1.5L 1 11.3775L 2 11.3775L 2 1.5L 1 1.5ZM 1.85355 11.7311L 2.73105 10.8536L 2.02395 10.1464L 1.14645 11.0239L 1.85355 11.7311ZM 2.3775 11L 13.5 11L 13.5 10L 2.3775 10L 2.3775 11ZM 14 10.5L 14 1.5L 13 1.5L 13 10.5L 14 10.5ZM 13.5 1L 1.5 1L 1.5 2L 13.5 2L 13.5 1ZM 3 4.25L 12 4.25L 12 3.25L 3 3.25L 3 4.25ZM 11.5 3.75L 11.5 5.25L 12.5 5.25L 12.5 3.75L 11.5 3.75ZM 12 4.75L 3 4.75L 3 5.75L 12 5.75L 12 4.75ZM 3.5 5.25L 3.5 3.75L 2.5 3.75L 2.5 5.25L 3.5 5.25ZM 3 7.25L 9.75 7.25L 9.75 6.25L 3 6.25L 3 7.25ZM 9.25 6.75L 9.25 8.25L 10.25 8.25L 10.25 6.75L 9.25 6.75ZM 9.75 7.75L 3 7.75L 3 8.75L 9.75 8.75L 9.75 7.75ZM 3.5 8.25L 3.5 6.75L 2.5 6.75L 2.5 8.25L 3.5 8.25Z"/>
  </defs>
</svg>
