<svg width="10" height="10" viewBox="0 0 10 10" version="1.1" xmlns="http://www.w3.org/2000/svg" xmlns:xlink="http://www.w3.org/1999/xlink">
  <title>Vector</title>
  <desc>Created using Figma</desc>
  <g id="Canvas" transform="translate(-144 15)">
    <g id="Vector">
      <use xlink:href="#path0_fill" transform="translate(144 -15)" fill="#000000" fill-opacity="0.7"/>
    </g>
  </g>
  <defs>
    <path id="path0_fill" d="M 6.11111 0L 6.11111 1.11111L 8.10556 1.11111L 2.64444 6.57222L 3.42778 7.35556L 8.88889 1.89444L 8.88889 3.88889L 10 3.88889L 10 0L 6.11111 0ZM 8.88889 8.88889L 1.11111 8.88889L 1.11111 1.11111L 5 1.11111L 5 0L 1.11111 0C 0.494444 0 0 0.5 0 1.11111L 0 8.88889C 2.46716e-16 9.18357 0.117063 9.46619 0.325437 9.67456C 0.533811 9.88294 0.816426 10 1.11111 10L 8.88889 10C 9.18357 10 9.46619 9.88294 9.67456 9.67456C 9.88294 9.46619 10 9.18357 10 8.88889L 10 5L 8.88889 5L 8.88889 8.88889Z"/>
  </defs>
</svg>
