<?xml version="1.0" standalone="no"?>
<!DOCTYPE svg PUBLIC "-//W3C//DTD SVG 20010904//EN"
        "http://www.w3.org/TR/2001/REC-SVG-20010904/DTD/svg10.dtd">
<svg version="1.0" xmlns="http://www.w3.org/2000/svg"
     width="2609.000000pt" height="457.000000pt" viewBox="0 0 2609.000000 457.000000"
     preserveAspectRatio="xMidYMid meet">

    <g transform="translate(0.000000,457.000000) scale(0.100000,-0.100000)"
       fill="#FFFFFF" stroke="none">
        <path d="M16540 3775 c0 -437 -4 -795 -8 -795 -5 0 -23 21 -42 46 -55 77 -204
174 -334 218 -210 71 -516 79 -755 20 -637 -158 -1048 -768 -1018 -1509 10
-244 58 -446 152 -642 192 -402 526 -665 953 -750 135 -27 419 -24 535 5 212
53 401 173 495 314 14 22 27 36 28 32 2 -5 8 -69 14 -142 6 -73 13 -139 16
-147 5 -13 58 -15 371 -15 l365 0 -7 32 c-5 18 -10 954 -12 2081 l-4 2047
-374 0 -375 0 0 -795z m-496 -1181 c226 -61 395 -237 467 -486 30 -105 38
-358 14 -483 -55 -297 -250 -519 -505 -579 -94 -23 -259 -21 -354 4 -207 53
-367 198 -448 408 -47 120 -61 209 -61 377 1 128 4 164 26 247 39 147 95 247
191 343 105 104 210 159 354 185 66 13 246 4 316 -16z"/>
        <path d="M2385 3814 c-11 -2 -45 -9 -75 -15 -80 -15 -225 -89 -302 -154 -117
-97 -212 -243 -261 -400 -30 -94 -52 -267 -43 -328 l7 -43 381 -182 382 -182
384 183 384 182 -5 135 c-6 162 -26 242 -97 380 -135 259 -367 415 -635 425
-55 2 -109 2 -120 -1z"/>
        <path d="M9290 3306 c-511 -91 -925 -449 -1090 -944 -61 -184 -74 -275 -75
-527 0 -201 3 -244 23 -343 43 -215 113 -386 224 -555 76 -114 253 -292 363
-365 287 -190 641 -277 995 -242 510 49 900 318 1087 749 19 46 36 97 37 114
l1 30 -314 93 c-173 52 -315 93 -315 91 -1 -1 -21 -42 -46 -92 -114 -230 -332
-345 -629 -333 -200 9 -345 72 -486 213 -108 108 -170 230 -190 373 l-7 52
1011 0 1010 0 7 36 c3 19 4 138 1 262 -4 192 -9 246 -31 348 -119 562 -457
908 -1001 1024 -128 27 -459 37 -575 16z m435 -631 c228 -60 384 -238 419
-477 l7 -48 -631 0 -632 0 7 43 c41 250 259 460 520 501 57 9 250 -3 310 -19z"/>
        <path d="M12355 3305 c-492 -80 -861 -402 -949 -829 -9 -43 -15 -80 -13 -82 4
-4 654 -144 667 -144 4 0 15 30 24 68 47 193 181 325 376 373 70 17 238 17
310 0 182 -44 290 -152 316 -316 14 -96 -45 -187 -141 -218 -27 -9 -223 -41
-435 -72 -409 -61 -521 -84 -642 -134 -257 -107 -423 -279 -498 -516 -35 -108
-40 -331 -11 -445 87 -347 388 -597 778 -650 128 -18 343 -8 453 20 187 47
382 169 490 306 l55 68 8 -114 c4 -63 11 -135 15 -160 l7 -45 353 -3 353 -2
-6 32 c-24 140 -28 288 -35 1118 -6 778 -9 914 -23 970 -50 203 -136 360 -269
486 -146 140 -334 230 -588 280 -119 23 -473 28 -595 9z m731 -1757 c-9 -167
-26 -253 -70 -345 -62 -130 -165 -219 -313 -270 -69 -24 -93 -27 -213 -27
-128 -1 -138 1 -196 27 -151 70 -222 222 -180 387 9 36 29 83 44 105 36 51
116 107 186 129 30 10 209 41 398 71 188 29 345 53 347 54 2 1 1 -59 -3 -131z"/>
        <path d="M410 3288 c0 -7 7 -74 16 -149 l17 -135 786 -244 c432 -133 793 -245
801 -247 8 -3 6 1 -5 8 -21 14 -1604 779 -1611 779 -2 0 -4 -6 -4 -12z"/>
        <path d="M3713 2907 c-446 -215 -810 -393 -809 -395 4 -3 1547 472 1582 487
18 8 22 23 33 113 6 56 14 122 17 146 4 23 2 42 -2 41 -5 0 -374 -176 -821
-392z"/>
        <path d="M19660 3260 c-270 -38 -471 -220 -525 -477 -19 -87 -19 -209 0 -298
47 -222 226 -404 455 -461 98 -25 281 -16 378 18 154 55 273 161 342 303 48
99 63 173 63 295 -1 187 -56 324 -179 447 -76 75 -188 139 -284 161 -67 15
-187 21 -250 12z m232 -287 c65 -30 133 -95 165 -162 26 -52 28 -65 28 -176 0
-118 -1 -121 -34 -183 -71 -131 -208 -196 -362 -171 -164 26 -271 146 -285
320 -15 181 71 325 229 381 69 25 192 20 259 -9z"/>
        <path d="M7455 3246 c-264 -42 -450 -154 -575 -347 l-40 -62 0 201 0 202 -375
0 -375 0 0 -1415 0 -1415 385 0 384 0 3 743 4 742 26 97 c80 294 259 453 558
499 73 11 282 7 343 -7 l27 -6 0 384 0 385 -52 7 c-80 9 -224 5 -313 -8z"/>
        <path d="M18230 2635 l0 -605 135 0 135 0 0 225 0 225 225 0 225 0 0 125 0
125 -225 0 -225 0 0 125 0 125 255 0 255 0 0 130 0 130 -390 0 -390 0 0 -605z"/>
        <path d="M20570 2636 l0 -606 135 0 135 0 0 225 0 225 48 0 47 -1 106 -222
106 -222 152 -3 151 -3 -120 241 c-66 132 -120 242 -120 244 0 2 24 18 53 34
65 37 112 88 146 162 23 48 26 68 26 155 0 93 -2 105 -33 167 -40 81 -110 148
-190 180 -54 21 -73 23 -349 26 l-293 3 0 -605z m520 349 c50 -26 70 -61 70
-125 0 -43 -5 -64 -21 -84 -37 -47 -68 -56 -189 -56 l-110 0 0 140 0 140 110
0 c78 0 119 -4 140 -15z"/>
        <path d="M22060 2635 l0 -605 125 0 125 0 0 380 c0 209 4 380 8 380 5 0 76
-170 159 -377 l150 -378 110 -3 111 -3 108 273 c59 150 128 327 155 393 l48
120 1 -392 0 -393 135 0 135 0 0 605 0 605 -187 0 -188 0 -154 -400 c-85 -220
-157 -400 -160 -400 -3 0 -78 179 -167 398 l-160 397 -177 3 -177 2 0 -605z"/>
        <path d="M23580 3236 c0 -3 95 -163 210 -358 l210 -353 0 -247 0 -248 130 0
130 0 0 248 0 248 208 344 c114 190 211 351 215 358 6 9 -25 12 -145 12 l-153
-1 -119 -215 c-65 -118 -122 -216 -125 -218 -4 -3 -60 94 -126 214 l-120 219
-157 1 c-87 0 -158 -2 -158 -4z"/>
        <path d="M271 2816 c-32 -18 -50 -53 -51 -100 0 -66 71 -851 78 -857 4 -3 57
-20 117 -38 280 -83 307 -93 345 -128 28 -24 41 -47 49 -81 20 -92 72 -528 66
-559 -3 -18 -17 -46 -32 -63 -47 -56 -63 -60 -277 -60 l-194 0 4 -37 c21 -199
24 -216 51 -265 27 -50 83 -100 133 -120 67 -26 1575 -506 1579 -502 7 7 -40
2244 -47 2283 l-7 34 -860 254 c-473 139 -876 253 -895 253 -19 -1 -46 -7 -59
-14z"/>
        <path d="M3717 2576 c-472 -140 -860 -256 -861 -257 -4 -5 -55 -2313 -51
-2317 4 -5 1569 500 1605 518 56 28 118 104 135 164 7 28 17 95 21 149 l6 97
-191 0 c-210 0 -227 4 -274 60 -15 17 -29 46 -33 66 -6 34 48 490 67 567 20
76 54 96 287 167 116 35 215 66 220 69 7 5 83 813 82 880 0 13 -15 38 -34 57
-29 29 -41 34 -77 33 -27 0 -383 -100 -902 -253z"/>
        <path d="M2300 2258 c0 -121 40 -1975 46 -2115 l6 -143 124 0 c122 0 124 0
124 23 0 12 11 517 25 1122 14 605 25 1117 25 1138 l0 37 -175 0 -175 0 0 -62z"/>
        <path d="M4 1693 c4 -38 16 -165 26 -283 19 -204 21 -217 48 -255 15 -22 46
-50 67 -62 38 -22 51 -23 263 -23 l224 0 29 29 c23 24 29 38 29 74 0 65 -38
343 -51 371 -6 13 -25 31 -43 40 -27 14 -572 176 -592 176 -4 0 -4 -30 0 -67z"/>
        <path d="M4645 1676 c-298 -88 -319 -95 -335 -126 -18 -33 -61 -387 -51 -414
5 -13 22 -33 37 -45 25 -20 37 -21 246 -21 195 0 223 2 256 19 87 44 97 75
122 352 11 129 23 253 26 277 4 31 2 42 -8 41 -7 0 -139 -38 -293 -83z"/>
        <path d="M18489 1576 c-112 -31 -218 -117 -267 -216 -38 -77 -43 -200 -13
-281 50 -131 158 -202 371 -243 153 -30 170 -36 203 -76 72 -84 -12 -190 -151
-190 -104 0 -210 75 -233 163 -9 36 -15 46 -28 43 -9 -3 -47 -13 -86 -21 -150
-34 -145 -32 -139 -68 13 -71 66 -166 123 -221 89 -85 180 -121 326 -132 157
-12 298 38 390 138 74 80 98 146 93 258 -4 101 -29 162 -94 227 -66 66 -142
98 -311 133 -154 31 -188 46 -212 95 -20 40 0 97 45 132 47 35 134 43 199 18
42 -15 105 -76 105 -100 1 -33 17 -33 130 -1 112 33 115 34 113 61 -3 45 -51
131 -99 179 -50 50 -123 88 -202 105 -69 14 -205 13 -263 -3z"/>
        <path d="M19652 1570 c-108 -29 -187 -75 -273 -160 -124 -123 -179 -259 -179
-447 0 -130 12 -188 62 -293 72 -151 209 -264 384 -316 83 -25 277 -25 359 0
160 48 287 153 351 290 55 120 61 108 -72 145 -64 18 -122 35 -128 37 -7 3
-23 -18 -36 -47 -63 -134 -226 -204 -380 -165 -106 27 -183 90 -229 186 -23
49 -26 67 -26 165 0 98 3 116 26 166 74 158 247 232 419 180 58 -18 81 -31
120 -70 30 -30 53 -64 61 -90 7 -23 18 -41 27 -41 7 0 65 16 128 36 90 28 114
40 114 54 0 10 -18 54 -40 98 -63 126 -164 212 -310 264 -84 30 -281 35 -378
8z"/>
        <path d="M22254 1570 c-220 -57 -388 -227 -439 -442 -19 -83 -19 -257 0 -333
59 -233 248 -408 485 -451 342 -62 659 135 734 456 35 149 12 343 -56 473 -42
81 -164 203 -245 245 -135 71 -328 92 -479 52z m261 -255 c169 -44 264 -189
252 -383 -9 -145 -73 -243 -197 -301 -46 -22 -69 -26 -145 -26 -76 0 -99 4
-145 26 -79 37 -125 81 -162 156 -27 55 -33 80 -36 153 -9 192 82 330 248 374
72 19 113 19 185 1z"/>
        <path d="M23634 1570 c-220 -57 -383 -220 -438 -436 -21 -80 -21 -258 -1 -343
66 -279 348 -478 647 -457 104 7 159 22 253 67 97 46 167 106 229 196 68 100
98 193 103 328 9 209 -44 354 -176 485 -87 87 -164 131 -277 160 -100 26 -242
26 -340 0z m261 -255 c169 -44 265 -193 252 -389 -9 -140 -75 -238 -197 -295
-46 -21 -70 -26 -145 -26 -77 0 -98 4 -146 26 -77 36 -130 87 -164 156 -37 74
-46 209 -22 294 35 118 120 202 237 233 72 19 113 19 185 1z"/>
        <path d="M20580 965 l0 -605 135 0 135 0 0 240 0 240 240 0 240 0 0 -240 0
-240 135 0 135 0 0 605 0 605 -135 0 -135 0 0 -240 0 -240 -237 2 -238 3 -3
238 -2 237 -135 0 -135 0 0 -605z"/>
        <path d="M24620 965 l0 -605 400 0 400 0 0 130 0 130 -265 0 -265 0 0 475 0
475 -135 0 -135 0 0 -605z"/>
        <path d="M25733 839 c-84 -41 -135 -125 -136 -219 -1 -72 17 -124 61 -172 53
-58 104 -81 183 -81 150 0 259 119 247 268 -8 90 -63 170 -143 206 -57 26
-157 25 -212 -2z m209 -59 c114 -78 118 -254 7 -327 -46 -30 -121 -41 -172
-24 -65 22 -127 113 -127 186 0 69 45 141 109 176 50 27 136 22 183 -11z"/>
        <path d="M25750 615 l0 -135 34 0 35 0 3 53 3 52 28 -52 c25 -49 30 -53 62
-53 l35 0 -26 51 -25 51 20 19 c40 37 39 92 -2 129 -17 16 -35 20 -94 20 l-73
0 0 -135z m131 69 c18 -21 0 -48 -35 -52 -24 -3 -26 0 -26 32 0 31 3 36 24 36
13 0 29 -7 37 -16z"/>
    </g>
</svg>
